<svg xmlns="http://www.w3.org/2000/svg" viewBox="0 0 220 220" width="220" height="220">
	<defs>
		<linearGradient id="grd1" gradientUnits="userSpaceOnUse"  x1="119.316" y1="105.32" x2="197.09" y2="27.545">
			<stop offset="0" stop-color="#00ccff"  />
			<stop offset="1" stop-color="#5ddefe"  />
		</linearGradient>
		<linearGradient id="grd2" gradientUnits="userSpaceOnUse"  x1="48.157" y1="145.657" x2="144.987" y2="48.827">
			<stop offset="0" stop-color="#d6f2fd"  />
			<stop offset="1" stop-color="#e5f5fd"  />
		</linearGradient>
		<linearGradient id="grd3" gradientUnits="userSpaceOnUse"  x1="80.642" y1="190.72" x2="104.225" y2="167.137">
			<stop offset="0" stop-color="#00ccff"  />
			<stop offset="1" stop-color="#5ddefe"  />
		</linearGradient>
	</defs>
	<style>
		tspan { white-space:pre }
		.shp0 { fill: url(#grd1) } 
		.shp1 { fill: url(#grd2) } 
		.shp2 { fill: #ffffff } 
		.shp3 { fill: url(#grd3) } 
	</style>
	<g >
		<path class="shp0" d="M158.94 105.32C137.09 105.32 119.32 87.54 119.32 65.69C119.32 48.13 131.11 32.47 148 27.62C148.74 27.42 149.51 27.62 150.04 28.15C150.58 28.69 150.78 29.47 150.57 30.19C149.64 33.43 149.17 36.73 149.17 39.99C149.17 59.55 165.08 75.47 184.65 75.47C187.9 75.47 191.2 74.99 194.44 74.06C195.17 73.86 195.95 74.06 196.48 74.59C197.02 75.13 197.22 75.91 197.01 76.63C192.16 93.52 176.51 105.32 158.94 105.32Z" />
		<path class="shp1" d="M144.34 145.66C160.26 145.66 173.17 132.97 173.17 117.32C173.17 101.67 160.26 88.98 144.34 88.98C144.24 88.98 144.14 89 144.04 89C141.48 66.4 121.99 48.83 98.32 48.83C79.62 48.83 63.54 59.79 56.34 75.53C56.11 75.53 55.89 75.51 55.66 75.51C35.95 75.51 19.98 91.21 19.98 110.58C19.98 129.95 35.95 145.66 55.66 145.66" />
		<path class="shp2" d="M181.8 145.75C191.85 145.75 200 137.65 200 127.67C200 117.68 191.85 109.58 181.8 109.58C181.74 109.58 181.68 109.59 181.61 109.59C180 95.17 167.69 83.95 152.75 83.95C140.94 83.95 130.79 90.95 126.25 101C126.1 100.99 125.96 100.98 125.82 100.98C113.38 100.98 103.29 111.01 103.29 123.37C103.29 135.73 113.38 145.75 125.82 145.75" />
		<path class="shp3" d="M50.26 190.72C49.34 190.72 48.41 190.49 47.55 190.02C44.96 188.57 44.07 185.37 45.57 182.86L53.39 169.76C54.89 167.25 58.2 166.39 60.8 167.84C63.4 169.29 64.28 172.49 62.79 175L54.96 188.1C53.95 189.78 52.13 190.72 50.26 190.72ZM87.16 190.72C86.24 190.72 85.31 190.49 84.46 190.02C81.86 188.57 80.97 185.37 82.47 182.86L90.3 169.76C91.79 167.25 95.1 166.39 97.7 167.84C100.3 169.29 101.18 172.49 99.69 175L91.86 188.1C90.86 189.78 89.04 190.72 87.16 190.72ZM126.77 190.72C125.85 190.72 124.92 190.49 124.07 190.02C121.47 188.57 120.58 185.37 122.08 182.86L129.91 169.76C131.4 167.25 134.71 166.39 137.31 167.84C139.91 169.29 140.79 172.49 139.3 175L131.47 188.1C130.47 189.78 128.65 190.72 126.77 190.72Z" />
	</g>
</svg>