<svg xmlns="http://www.w3.org/2000/svg" viewBox="0 0 220 220" width="220" height="220">
	<defs>
		<linearGradient id="grd1" gradientUnits="userSpaceOnUse"  x1="120.746" y1="133.591" x2="182.545" y2="71.792">
			<stop offset="0" stop-color="#d6f2fd"  />
			<stop offset="1" stop-color="#e5f5fd"  />
		</linearGradient>
		<linearGradient id="grd2" gradientUnits="userSpaceOnUse"  x1="89.654" y1="182" x2="119.222" y2="152.432">
			<stop offset="0" stop-color="#00ccff"  />
			<stop offset="1" stop-color="#5ddefe"  />
		</linearGradient>
	</defs>
	<style>
		tspan { white-space:pre }
		.shp0 { fill: #ffffff } 
		.shp1 { fill: url(#grd1) } 
		.shp2 { fill: url(#grd2) } 
	</style>
	<g >
		<path class="shp0" d="M144.34 133.5C160.26 133.5 173.17 120.81 173.17 105.16C173.17 89.51 160.26 76.82 144.34 76.82C144.24 76.82 144.14 76.83 144.04 76.84C141.48 54.24 121.99 36.67 98.32 36.67C79.62 36.67 63.54 47.63 56.34 63.37C56.11 63.36 55.89 63.35 55.66 63.35C35.95 63.35 19.98 79.05 19.98 98.42C19.98 117.79 35.95 133.5 55.66 133.5" />
		<path class="shp1" d="M181.8 133.59C191.85 133.59 200 125.49 200 115.51C200 105.52 191.85 97.42 181.8 97.42C181.74 97.42 181.68 97.43 181.61 97.43C180 83.01 167.69 71.79 152.75 71.79C140.94 71.79 130.79 78.79 126.25 88.83C126.1 88.83 125.96 88.82 125.82 88.82C113.38 88.82 103.29 98.85 103.29 111.21C103.29 123.57 113.38 133.59 125.82 133.59" />
		<path class="shp2" d="M75.23 160.5L48.06 160.5C45.81 160.5 43.99 158.69 43.99 156.46C43.99 154.24 45.81 152.43 48.06 152.43L75.23 152.43C77.48 152.43 79.31 154.24 79.31 156.46C79.31 158.69 77.48 160.5 75.23 160.5ZM133.64 160.5L92.89 160.5C90.64 160.5 88.82 158.69 88.82 156.46C88.82 154.24 90.64 152.43 92.89 152.43L133.64 152.43C135.89 152.43 137.72 154.24 137.72 156.46C137.72 158.69 135.89 160.5 133.64 160.5ZM102.4 182L48.06 182C45.81 182 43.99 180.2 43.99 177.97C43.99 175.74 45.81 173.94 48.06 173.94L102.4 173.94C104.65 173.94 106.48 175.74 106.48 177.97C106.48 180.2 104.65 182 102.4 182ZM160.81 182L120.06 182C117.81 182 115.99 180.2 115.99 177.97C115.99 175.74 117.81 173.94 120.06 173.94L160.81 173.94C163.06 173.94 164.89 175.74 164.89 177.97C164.89 180.2 163.06 182 160.81 182Z" />
	</g>
</svg>