<svg xmlns="http://www.w3.org/2000/svg" viewBox="0 0 220 220" width="220" height="220">
	<defs>
		<linearGradient id="grd1" gradientUnits="userSpaceOnUse"  x1="120.746" y1="120.119" x2="182.545" y2="58.32">
			<stop offset="0" stop-color="#d6f2fd"  />
			<stop offset="1" stop-color="#e5f5fd"  />
		</linearGradient>
		<linearGradient id="grd2" gradientUnits="userSpaceOnUse"  x1="61.666" y1="197.943" x2="115.494" y2="144.114">
			<stop offset="0" stop-color="#d6f2fd"  />
			<stop offset="1" stop-color="#e5f5fd"  />
		</linearGradient>
	</defs>
	<style>
		tspan { white-space:pre }
		.shp0 { fill: #ffffff } 
		.shp1 { fill: url(#grd1) } 
		.shp2 { fill: url(#grd2) } 
	</style>
	<g >
		<path class="shp0" d="M144.34 120.02C160.26 120.02 173.17 107.34 173.17 91.69C173.17 76.04 160.26 63.35 144.34 63.35C144.24 63.35 144.14 63.36 144.04 63.36C141.48 40.77 121.99 23.19 98.32 23.19C79.62 23.19 63.54 34.16 56.34 49.9C56.11 49.89 55.89 49.88 55.66 49.88C35.95 49.88 19.98 65.58 19.98 84.95C19.98 104.32 35.95 120.02 55.66 120.02" />
		<path class="shp1" d="M181.8 120.12C191.85 120.12 200 112.02 200 102.03C200 92.05 191.85 83.95 181.8 83.95C181.74 83.95 181.68 83.96 181.61 83.96C180 69.54 167.69 58.32 152.75 58.32C140.95 58.32 130.79 65.32 126.25 75.36C126.1 75.36 125.96 75.35 125.82 75.35C113.38 75.35 103.29 85.37 103.29 97.74C103.29 110.1 113.38 120.12 125.82 120.12" />
		<path class="shp2" d="M60.36 149.42C60.36 152.35 57.95 154.73 54.98 154.73C52.01 154.73 49.6 152.35 49.6 149.42C49.6 146.49 52.01 144.11 54.98 144.11C57.95 144.11 60.36 146.49 60.36 149.42ZM87.24 149.42C87.24 152.35 84.83 154.73 81.86 154.73C78.89 154.73 76.48 152.35 76.48 149.42C76.48 146.49 78.89 144.11 81.86 144.11C84.83 144.11 87.24 146.49 87.24 149.42ZM114.12 149.42C114.12 152.35 111.71 154.73 108.74 154.73C105.77 154.73 103.36 152.35 103.36 149.42C103.36 146.49 105.77 144.11 108.74 144.11C111.71 144.11 114.12 146.49 114.12 149.42ZM141 149.42C141 152.35 138.59 154.73 135.62 154.73C132.65 154.73 130.24 152.35 130.24 149.42C130.24 146.49 132.65 144.11 135.62 144.11C138.59 144.11 141 146.49 141 149.42ZM60.36 192.64C60.36 195.57 57.95 197.94 54.98 197.94C52.01 197.94 49.6 195.57 49.6 192.64C49.6 189.7 52.01 187.33 54.98 187.33C57.95 187.33 60.36 189.7 60.36 192.64ZM87.24 192.64C87.24 195.57 84.83 197.94 81.86 197.94C78.89 197.94 76.48 195.57 76.48 192.64C76.48 189.7 78.89 187.33 81.86 187.33C84.83 187.33 87.24 189.7 87.24 192.64ZM114.12 192.64C114.12 195.57 111.71 197.94 108.74 197.94C105.77 197.94 103.36 195.57 103.36 192.64C103.36 189.7 105.77 187.33 108.74 187.33C111.71 187.33 114.12 189.7 114.12 192.64ZM141 192.64C141 195.57 138.59 197.94 135.62 197.94C132.65 197.94 130.24 195.57 130.24 192.64C130.24 189.7 132.65 187.33 135.62 187.33C138.59 187.33 141 189.7 141 192.64ZM46.92 171.4C46.92 174.34 44.51 176.71 41.54 176.71C38.57 176.71 36.16 174.34 36.16 171.4C36.16 168.47 38.57 166.1 41.54 166.1C44.51 166.1 46.92 168.47 46.92 171.4ZM73.8 171.4C73.8 174.34 71.39 176.71 68.42 176.71C65.45 176.71 63.04 174.34 63.04 171.4C63.04 168.47 65.45 166.1 68.42 166.1C71.39 166.1 73.8 168.47 73.8 171.4ZM100.68 171.4C100.68 174.34 98.27 176.71 95.3 176.71C92.33 176.71 89.92 174.34 89.92 171.4C89.92 168.47 92.33 166.1 95.3 166.1C98.27 166.1 100.68 168.47 100.68 171.4ZM127.56 171.4C127.56 174.34 125.15 176.71 122.18 176.71C119.21 176.71 116.8 174.34 116.8 171.4C116.8 168.47 119.21 166.1 122.18 166.1C125.15 166.1 127.56 168.47 127.56 171.4Z" />
	</g>
</svg>