<svg id="Layer_1" enable-background="new 0 0 512 512" height="512" viewBox="0 0 512 512" width="512" xmlns="http://www.w3.org/2000/svg" xmlns:xlink="http://www.w3.org/1999/xlink"><linearGradient id="SVGID_1_" gradientUnits="userSpaceOnUse" x1="0" x2="512" y1="256" y2="256"><stop offset="0" stop-color="#00f2fe"/><stop offset=".0208" stop-color="#03effe"/><stop offset=".2931" stop-color="#24d2fe"/><stop offset=".5538" stop-color="#3cbdfe"/><stop offset=".7956" stop-color="#4ab0fe"/><stop offset="1" stop-color="#4facfe"/></linearGradient><path d="m328 381h-144c-11.046 0-20-8.954-20-20s8.954-20 20-20h144c11.046 0 20 8.954 20 20s-8.954 20-20 20zm60.461 94.107c9.448-5.723 12.467-18.021 6.745-27.468-5.724-9.448-18.021-12.468-27.468-6.745-33.595 20.35-72.233 31.106-111.738 31.106-119.103 0-216-96.897-216-216s96.897-216 216-216 216 96.897 216 216c0 42.589-12.665 84.044-36.626 119.885-6.139 9.183-3.672 21.603 5.511 27.742 9.184 6.14 21.604 3.671 27.742-5.511 28.374-42.442 43.373-91.585 43.373-142.116 0-68.38-26.629-132.667-74.98-181.02-48.353-48.351-112.64-74.98-181.02-74.98s-132.667 26.629-181.02 74.98c-48.351 48.353-74.98 112.64-74.98 181.02s26.629 132.667 74.98 181.02c48.353 48.351 112.64 74.98 181.02 74.98 46.813 0 92.617-12.757 132.461-36.893zm6.539-239.107c0-11.046-8.954-20-20-20s-20 8.954-20 20c0 5.514-4.486 10-10 10s-10-4.486-10-10c0-11.046-8.954-20-20-20s-20 8.954-20 20c0 27.57 22.43 50 50 50s50-22.43 50-50zm-177 0c0-11.046-8.954-20-20-20s-20 8.954-20 20c0 5.514-4.486 10-10 10s-10-4.486-10-10c0-11.046-8.954-20-20-20s-20 8.954-20 20c0 27.57 22.43 50 50 50s50-22.43 50-50z" fill="url(#SVGID_1_)"/></svg>