<svg xmlns="http://www.w3.org/2000/svg" viewBox="0 0 220 220" width="220" height="220">
	<defs>
		<linearGradient id="grd1" gradientUnits="userSpaceOnUse"  x1="122.025" y1="128.775" x2="199.799" y2="51.001">
			<stop offset="0" stop-color="#00ccff"  />
			<stop offset="1" stop-color="#5ddefe"  />
		</linearGradient>
		<linearGradient id="grd2" gradientUnits="userSpaceOnUse"  x1="176.233" y1="72.741" x2="196.141" y2="52.833">
			<stop offset="0" stop-color="#ffbc27"  />
			<stop offset="1" stop-color="#fde252"  />
		</linearGradient>
		<linearGradient id="grd3" gradientUnits="userSpaceOnUse"  x1="29.867" y1="79.36" x2="45.054" y2="64.172">
			<stop offset="0" stop-color="#ffbc27"  />
			<stop offset="1" stop-color="#fde252"  />
		</linearGradient>
		<linearGradient id="grd4" gradientUnits="userSpaceOnUse"  x1="48.178" y1="169.112" x2="145.008" y2="72.282">
			<stop offset="0" stop-color="#d6f2fd"  />
			<stop offset="1" stop-color="#e5f5fd"  />
		</linearGradient>
	</defs>
	<style>
		tspan { white-space:pre }
		.shp0 { fill: url(#grd1) } 
		.shp1 { fill: url(#grd2) } 
		.shp2 { fill: url(#grd3) } 
		.shp3 { fill: url(#grd4) } 
		.shp4 { fill: #ffffff } 
	</style>
	<g >
		<path class="shp0" d="M161.65 128.78C139.8 128.78 122.02 111 122.02 89.15C122.02 71.58 133.82 55.93 150.71 51.08C151.45 50.87 152.22 51.07 152.75 51.61C153.29 52.14 153.49 52.92 153.28 53.65C152.35 56.89 151.88 60.18 151.88 63.44C151.88 83.01 167.79 98.92 187.36 98.92C190.61 98.92 193.91 98.45 197.15 97.52C197.88 97.31 198.66 97.51 199.19 98.05C199.72 98.58 199.93 99.36 199.72 100.09C194.87 116.98 179.22 128.78 161.65 128.78Z" />
		<path class="shp1" d="M187.57 70.64C186.81 73.44 185.56 73.44 184.8 70.64C184.04 67.84 181.13 64.93 178.33 64.17C175.53 63.41 175.53 62.16 178.33 61.4C181.13 60.64 184.04 57.73 184.8 54.93C185.56 52.13 186.81 52.13 187.57 54.93C188.33 57.73 191.25 60.64 194.04 61.4C196.84 62.16 196.84 63.41 194.04 64.17C191.25 64.93 188.33 67.84 187.57 70.64Z" />
		<path class="shp2" d="M38.52 77.76C37.94 79.89 36.99 79.89 36.4 77.76C35.82 75.62 33.6 73.4 31.47 72.82C29.33 72.24 29.33 71.29 31.47 70.71C33.6 70.13 35.82 67.91 36.4 65.77C36.99 63.64 37.94 63.64 38.52 65.77C39.1 67.91 41.32 70.13 43.45 70.71C45.59 71.29 45.59 72.24 43.45 72.82C41.32 73.4 39.1 75.62 38.52 77.76Z" />
		<path class="shp3" d="M144.36 169.11C160.28 169.11 173.19 156.42 173.19 140.77C173.19 125.12 160.28 112.44 144.36 112.44C144.26 112.44 144.16 112.45 144.06 112.45C141.5 89.85 122.01 72.28 98.34 72.28C79.64 72.28 63.56 83.25 56.36 98.98C56.13 98.98 55.91 98.97 55.68 98.97C35.97 98.97 20 114.67 20 134.04C20 153.41 35.97 169.11 55.68 169.11" />
		<path class="shp4" d="M181.82 169.21C191.87 169.21 200.02 161.11 200.02 151.12C200.02 141.13 191.87 133.04 181.82 133.04C181.76 133.04 181.7 133.04 181.64 133.05C180.02 118.62 167.71 107.41 152.77 107.41C140.97 107.41 130.81 114.41 126.27 124.45C126.12 124.45 125.98 124.44 125.84 124.44C113.4 124.44 103.31 134.46 103.31 146.82C103.31 159.19 113.4 169.21 125.84 169.21" />
	</g>
</svg>