<svg xmlns="http://www.w3.org/2000/svg" viewBox="0 0 220 220" width="220" height="220">
	<defs>
		<linearGradient id="grd1" gradientUnits="userSpaceOnUse"  x1="120.767" y1="158.925" x2="182.566" y2="97.126">
			<stop offset="0" stop-color="#d6f2fd"  />
			<stop offset="1" stop-color="#e5f5fd"  />
		</linearGradient>
	</defs>
	<style>
		tspan { white-space:pre }
		.shp0 { fill: #ffffff } 
		.shp1 { fill: url(#grd1) } 
	</style>
	<g >
		<path class="shp0" d="M144.36 158.83C160.28 158.83 173.19 146.14 173.19 130.49C173.19 114.84 160.28 102.16 144.36 102.16C144.26 102.16 144.16 102.17 144.06 102.17C141.5 79.57 122.01 62 98.34 62C79.64 62 63.56 72.96 56.36 88.7C56.13 88.7 55.91 88.69 55.68 88.69C35.97 88.69 20 104.39 20 123.76C20 143.13 35.97 158.83 55.68 158.83" />
		<path class="shp1" d="M181.82 158.93C191.87 158.93 200.02 150.83 200.02 140.84C200.02 130.85 191.87 122.75 181.82 122.75C181.76 122.75 181.7 122.76 181.64 122.76C180.02 108.34 167.71 97.13 152.77 97.13C140.97 97.13 130.81 104.12 126.27 114.17C126.12 114.17 125.98 114.16 125.84 114.16C113.4 114.16 103.31 124.18 103.31 136.54C103.31 148.9 113.4 158.93 125.84 158.93" />
	</g>
</svg>