<svg xmlns="http://www.w3.org/2000/svg" viewBox="0 0 220 220" width="220" height="220">
	<defs>
		<linearGradient id="grd1" gradientUnits="userSpaceOnUse"  x1="66.948" y1="184.448" x2="126.146" y2="125.249">
			<stop offset="0" stop-color="#ffbc27"  />
			<stop offset="1" stop-color="#fde252"  />
		</linearGradient>
		<linearGradient id="grd2" gradientUnits="userSpaceOnUse"  x1="120.746" y1="127.265" x2="182.545" y2="65.466">
			<stop offset="0" stop-color="#d6f2fd"  />
			<stop offset="1" stop-color="#e5f5fd"  />
		</linearGradient>
	</defs>
	<style>
		tspan { white-space:pre }
		.shp0 { fill: url(#grd1) } 
		.shp1 { fill: #ffffff } 
		.shp2 { fill: url(#grd2) } 
	</style>
	<g >
		<path class="shp0" d="M94.31 119.17C89.85 119.17 84.37 122.33 82.14 126.2L67.9 150.91C65.67 154.78 67.49 157.68 71.94 157.35L83.57 156.49C88.02 156.16 89.91 159.11 87.78 163.04L74.85 186.89C72.72 190.81 73.79 191.7 77.24 188.87L124.02 150.33C127.46 147.49 126.64 145.35 122.18 145.58L104.31 146.5C99.85 146.72 98.03 143.75 100.26 139.88L108.13 126.23C110.36 122.36 108.53 119.19 104.07 119.18L94.31 119.17Z" />
		<path class="shp1" d="M144.34 127.17C160.26 127.17 173.17 114.48 173.17 98.83C173.17 83.18 160.26 70.5 144.34 70.5C144.24 70.5 144.14 70.51 144.04 70.51C141.48 47.91 121.99 30.34 98.32 30.34C79.62 30.34 63.54 41.3 56.34 57.04C56.11 57.04 55.89 57.03 55.66 57.03C35.95 57.03 19.98 72.73 19.98 92.1C19.98 111.47 35.95 127.17 55.66 127.17" />
		<path class="shp2" d="M181.8 127.26C191.85 127.26 200 119.17 200 109.18C200 99.19 191.85 91.09 181.8 91.09C181.74 91.09 181.68 91.1 181.61 91.1C180 76.68 167.69 65.47 152.75 65.47C140.95 65.47 130.79 72.46 126.25 82.51C126.1 82.51 125.96 82.5 125.82 82.5C113.38 82.5 103.29 92.52 103.29 104.88C103.29 117.24 113.38 127.26 125.82 127.26" />
	</g>
</svg>