<svg xmlns="http://www.w3.org/2000/svg" viewBox="0 0 220 220" width="220" height="220">
	<defs>
		<linearGradient id="grd1" gradientUnits="userSpaceOnUse"  x1="120.746" y1="127.709" x2="182.545" y2="65.911">
			<stop offset="0" stop-color="#d6f2fd"  />
			<stop offset="1" stop-color="#e5f5fd"  />
		</linearGradient>
		<linearGradient id="grd2" gradientUnits="userSpaceOnUse"  x1="53.889" y1="188.669" x2="95.972" y2="146.586">
			<stop offset="0" stop-color="#00ccff"  />
			<stop offset="1" stop-color="#5ddefe"  />
		</linearGradient>
	</defs>
	<style>
		tspan { white-space:pre }
		.shp0 { fill: #ffffff } 
		.shp1 { fill: url(#grd1) } 
		.shp2 { fill: url(#grd2) } 
	</style>
	<g >
		<path class="shp0" d="M144.34 127.61C160.26 127.61 173.17 114.93 173.17 99.28C173.17 83.63 160.26 70.94 144.34 70.94C144.24 70.94 144.14 70.95 144.04 70.95C141.48 48.36 121.99 30.78 98.32 30.78C79.62 30.78 63.54 41.75 56.34 57.49C56.11 57.48 55.89 57.47 55.66 57.47C35.95 57.47 19.98 73.17 19.98 92.54C19.98 111.91 35.95 127.61 55.66 127.61" />
		<path class="shp1" d="M181.8 127.71C191.85 127.71 200 119.61 200 109.62C200 99.64 191.85 91.54 181.8 91.54C181.74 91.54 181.68 91.55 181.61 91.55C180 77.13 167.69 65.91 152.75 65.91C140.95 65.91 130.79 72.91 126.25 82.95C126.1 82.95 125.96 82.94 125.82 82.94C113.38 82.94 103.29 92.96 103.29 105.33C103.29 117.69 113.38 127.71 125.82 127.71" />
		<path class="shp2" d="M36.63 188.67C35.73 188.67 34.81 188.43 33.97 187.93C31.42 186.41 30.55 183.03 32.02 180.39L49.33 149.35C50.79 146.71 54.05 145.8 56.6 147.33C59.15 148.85 60.02 152.22 58.55 154.86L41.25 185.91C40.26 187.68 38.47 188.67 36.63 188.67ZM66.27 188.67C65.37 188.67 64.45 188.43 63.62 187.93C61.07 186.41 60.2 183.03 61.67 180.39L78.97 149.35C80.44 146.71 83.7 145.8 86.24 147.33C88.79 148.85 89.66 152.22 88.19 154.86L70.89 185.91C69.9 187.68 68.11 188.67 66.27 188.67ZM95.92 188.67C95.01 188.67 94.1 188.43 93.26 187.93C90.71 186.41 89.84 183.03 91.31 180.39L108.62 149.35C110.09 146.71 113.34 145.8 115.89 147.33C118.44 148.85 119.31 152.22 117.84 154.86L100.53 185.91C99.55 187.68 97.76 188.67 95.92 188.67Z" />
	</g>
</svg>