<?xml version="1.0" encoding="iso-8859-1"?>
<!-- Generator: Adobe Illustrator 19.0.0, SVG Export Plug-In . SVG Version: 6.00 Build 0)  -->
<svg version="1.1" id="Capa_1" xmlns="http://www.w3.org/2000/svg" xmlns:xlink="http://www.w3.org/1999/xlink" x="0px" y="0px"
	 viewBox="0 0 480 480" style="enable-background:new 0 0 480 480;" xml:space="preserve">
<linearGradient id="SVGID_1_" gradientUnits="userSpaceOnUse" x1="-56.875" y1="601.125" x2="2.795" y2="601.125" gradientTransform="matrix(8 0 0 -8 455 5049)">
	<stop  offset="0" style="stop-color:#4761AC"/>
	<stop  offset="1" style="stop-color:#54C2EF"/>
</linearGradient>
<path style="fill:url(#SVGID_1_);" d="M464,102.232L352,64.896V220h-16V44H144v176h-16v-96h-16V68H80V20H64v48H32v56H16v96H0v224
	h144v16h192v-16h144V220h-16V102.232z M368,87.104l80,26.664V220h-16v-96h-16v96h-16v-96h-16v96h-16V87.104z M48,84h48v40H48V84z
	 M32,140h80v80H32V140z M16,428V236h128v192H16z M224,444v-80h32v80H224z M272,444v-96h-64v96h-48V60h160v384H272z M384,428v-32h32
	v32H384z M464,428h-32v-48h-64v48h-32V236h128V428z"/>
<g>
	
		<linearGradient id="SVGID_2_" gradientUnits="userSpaceOnUse" x1="-56.875" y1="598.625" x2="2.795" y2="598.625" gradientTransform="matrix(8 0 0 -8 455 5049)">
		<stop  offset="0" style="stop-color:#4761AC"/>
		<stop  offset="1" style="stop-color:#54C2EF"/>
	</linearGradient>
	<path style="fill:url(#SVGID_2_);" d="M32,252h96v16H32V252z"/>
	
		<linearGradient id="SVGID_3_" gradientUnits="userSpaceOnUse" x1="-56.875" y1="594.625" x2="2.795" y2="594.625" gradientTransform="matrix(8 0 0 -8 455 5049)">
		<stop  offset="0" style="stop-color:#4761AC"/>
		<stop  offset="1" style="stop-color:#54C2EF"/>
	</linearGradient>
	<path style="fill:url(#SVGID_3_);" d="M32,284h96v16H32V284z"/>
	
		<linearGradient id="SVGID_4_" gradientUnits="userSpaceOnUse" x1="-56.875" y1="590.625" x2="2.795" y2="590.625" gradientTransform="matrix(8 0 0 -8 455 5049)">
		<stop  offset="0" style="stop-color:#4761AC"/>
		<stop  offset="1" style="stop-color:#54C2EF"/>
	</linearGradient>
	<path style="fill:url(#SVGID_4_);" d="M32,316h96v16H32V316z"/>
	
		<linearGradient id="SVGID_5_" gradientUnits="userSpaceOnUse" x1="-56.875" y1="586.625" x2="2.795" y2="586.625" gradientTransform="matrix(8 0 0 -8 455 5049)">
		<stop  offset="0" style="stop-color:#4761AC"/>
		<stop  offset="1" style="stop-color:#54C2EF"/>
	</linearGradient>
	<path style="fill:url(#SVGID_5_);" d="M32,348h96v16H32V348z"/>
	
		<linearGradient id="SVGID_6_" gradientUnits="userSpaceOnUse" x1="-56.875" y1="616.625" x2="2.795" y2="616.625" gradientTransform="matrix(8 0 0 -8 455 5049)">
		<stop  offset="0" style="stop-color:#4761AC"/>
		<stop  offset="1" style="stop-color:#54C2EF"/>
	</linearGradient>
	<path style="fill:url(#SVGID_6_);" d="M184,140h48V92h-48V140z M200,108h16v16h-16V108z"/>
	
		<linearGradient id="SVGID_7_" gradientUnits="userSpaceOnUse" x1="-56.875" y1="616.625" x2="2.795" y2="616.625" gradientTransform="matrix(8 0 0 -8 455 5049)">
		<stop  offset="0" style="stop-color:#4761AC"/>
		<stop  offset="1" style="stop-color:#54C2EF"/>
	</linearGradient>
	<path style="fill:url(#SVGID_7_);" d="M248,140h48V92h-48V140z M264,108h16v16h-16V108z"/>
	
		<linearGradient id="SVGID_8_" gradientUnits="userSpaceOnUse" x1="-56.875" y1="608.625" x2="2.795" y2="608.625" gradientTransform="matrix(8 0 0 -8 455 5049)">
		<stop  offset="0" style="stop-color:#4761AC"/>
		<stop  offset="1" style="stop-color:#54C2EF"/>
	</linearGradient>
	<path style="fill:url(#SVGID_8_);" d="M184,204h48v-48h-48V204z M200,172h16v16h-16V172z"/>
	
		<linearGradient id="SVGID_9_" gradientUnits="userSpaceOnUse" x1="-56.875" y1="608.625" x2="2.795" y2="608.625" gradientTransform="matrix(8 0 0 -8 455 5049)">
		<stop  offset="0" style="stop-color:#4761AC"/>
		<stop  offset="1" style="stop-color:#54C2EF"/>
	</linearGradient>
	<path style="fill:url(#SVGID_9_);" d="M248,204h48v-48h-48V204z M264,172h16v16h-16V172z"/>
	
		<linearGradient id="SVGID_10_" gradientUnits="userSpaceOnUse" x1="-56.875" y1="600.625" x2="2.795" y2="600.625" gradientTransform="matrix(8 0 0 -8 455 5049)">
		<stop  offset="0" style="stop-color:#4761AC"/>
		<stop  offset="1" style="stop-color:#54C2EF"/>
	</linearGradient>
	<path style="fill:url(#SVGID_10_);" d="M184,268h48v-48h-48V268z M200,236h16v16h-16V236z"/>
	
		<linearGradient id="SVGID_11_" gradientUnits="userSpaceOnUse" x1="-56.875" y1="600.625" x2="2.795" y2="600.625" gradientTransform="matrix(8 0 0 -8 455 5049)">
		<stop  offset="0" style="stop-color:#4761AC"/>
		<stop  offset="1" style="stop-color:#54C2EF"/>
	</linearGradient>
	<path style="fill:url(#SVGID_11_);" d="M248,268h48v-48h-48V268z M264,236h16v16h-16V236z"/>
	
		<linearGradient id="SVGID_12_" gradientUnits="userSpaceOnUse" x1="-56.875" y1="592.625" x2="2.795" y2="592.625" gradientTransform="matrix(8 0 0 -8 455 5049)">
		<stop  offset="0" style="stop-color:#4761AC"/>
		<stop  offset="1" style="stop-color:#54C2EF"/>
	</linearGradient>
	<path style="fill:url(#SVGID_12_);" d="M184,332h48v-48h-48V332z M200,300h16v16h-16V300z"/>
	
		<linearGradient id="SVGID_13_" gradientUnits="userSpaceOnUse" x1="-56.875" y1="592.625" x2="2.795" y2="592.625" gradientTransform="matrix(8 0 0 -8 455 5049)">
		<stop  offset="0" style="stop-color:#4761AC"/>
		<stop  offset="1" style="stop-color:#54C2EF"/>
	</linearGradient>
	<path style="fill:url(#SVGID_13_);" d="M248,332h48v-48h-48V332z M264,300h16v16h-16V300z"/>
	
		<linearGradient id="SVGID_14_" gradientUnits="userSpaceOnUse" x1="-56.875" y1="598.625" x2="2.795" y2="598.625" gradientTransform="matrix(8 0 0 -8 455 5049)">
		<stop  offset="0" style="stop-color:#4761AC"/>
		<stop  offset="1" style="stop-color:#54C2EF"/>
	</linearGradient>
	<path style="fill:url(#SVGID_14_);" d="M352,252h16v16h-16V252z"/>
	
		<linearGradient id="SVGID_15_" gradientUnits="userSpaceOnUse" x1="-56.875" y1="598.625" x2="2.795" y2="598.625" gradientTransform="matrix(8 0 0 -8 455 5049)">
		<stop  offset="0" style="stop-color:#4761AC"/>
		<stop  offset="1" style="stop-color:#54C2EF"/>
	</linearGradient>
	<path style="fill:url(#SVGID_15_);" d="M384,252h32v16h-32V252z"/>
	
		<linearGradient id="SVGID_16_" gradientUnits="userSpaceOnUse" x1="-56.875" y1="598.625" x2="2.795" y2="598.625" gradientTransform="matrix(8 0 0 -8 455 5049)">
		<stop  offset="0" style="stop-color:#4761AC"/>
		<stop  offset="1" style="stop-color:#54C2EF"/>
	</linearGradient>
	<path style="fill:url(#SVGID_16_);" d="M432,252h16v16h-16V252z"/>
	
		<linearGradient id="SVGID_17_" gradientUnits="userSpaceOnUse" x1="-56.875" y1="594.625" x2="2.795" y2="594.625" gradientTransform="matrix(8 0 0 -8 455 5049)">
		<stop  offset="0" style="stop-color:#4761AC"/>
		<stop  offset="1" style="stop-color:#54C2EF"/>
	</linearGradient>
	<path style="fill:url(#SVGID_17_);" d="M352,284h16v16h-16V284z"/>
	
		<linearGradient id="SVGID_18_" gradientUnits="userSpaceOnUse" x1="-56.875" y1="594.625" x2="2.795" y2="594.625" gradientTransform="matrix(8 0 0 -8 455 5049)">
		<stop  offset="0" style="stop-color:#4761AC"/>
		<stop  offset="1" style="stop-color:#54C2EF"/>
	</linearGradient>
	<path style="fill:url(#SVGID_18_);" d="M384,284h32v16h-32V284z"/>
	
		<linearGradient id="SVGID_19_" gradientUnits="userSpaceOnUse" x1="-56.875" y1="594.625" x2="2.795" y2="594.625" gradientTransform="matrix(8 0 0 -8 455 5049)">
		<stop  offset="0" style="stop-color:#4761AC"/>
		<stop  offset="1" style="stop-color:#54C2EF"/>
	</linearGradient>
	<path style="fill:url(#SVGID_19_);" d="M432,284h16v16h-16V284z"/>
	
		<linearGradient id="SVGID_20_" gradientUnits="userSpaceOnUse" x1="-56.875" y1="590.625" x2="2.795" y2="590.625" gradientTransform="matrix(8 0 0 -8 455 5049)">
		<stop  offset="0" style="stop-color:#4761AC"/>
		<stop  offset="1" style="stop-color:#54C2EF"/>
	</linearGradient>
	<path style="fill:url(#SVGID_20_);" d="M352,316h16v16h-16V316z"/>
	
		<linearGradient id="SVGID_21_" gradientUnits="userSpaceOnUse" x1="-56.875" y1="590.625" x2="2.795" y2="590.625" gradientTransform="matrix(8 0 0 -8 455 5049)">
		<stop  offset="0" style="stop-color:#4761AC"/>
		<stop  offset="1" style="stop-color:#54C2EF"/>
	</linearGradient>
	<path style="fill:url(#SVGID_21_);" d="M384,316h32v16h-32V316z"/>
	
		<linearGradient id="SVGID_22_" gradientUnits="userSpaceOnUse" x1="-56.875" y1="590.625" x2="2.795" y2="590.625" gradientTransform="matrix(8 0 0 -8 455 5049)">
		<stop  offset="0" style="stop-color:#4761AC"/>
		<stop  offset="1" style="stop-color:#54C2EF"/>
	</linearGradient>
	<path style="fill:url(#SVGID_22_);" d="M432,316h16v16h-16V316z"/>
	
		<linearGradient id="SVGID_23_" gradientUnits="userSpaceOnUse" x1="-56.875" y1="586.625" x2="2.795" y2="586.625" gradientTransform="matrix(8 0 0 -8 455 5049)">
		<stop  offset="0" style="stop-color:#4761AC"/>
		<stop  offset="1" style="stop-color:#54C2EF"/>
	</linearGradient>
	<path style="fill:url(#SVGID_23_);" d="M352,348h16v16h-16V348z"/>
	
		<linearGradient id="SVGID_24_" gradientUnits="userSpaceOnUse" x1="-56.875" y1="586.625" x2="2.795" y2="586.625" gradientTransform="matrix(8 0 0 -8 455 5049)">
		<stop  offset="0" style="stop-color:#4761AC"/>
		<stop  offset="1" style="stop-color:#54C2EF"/>
	</linearGradient>
	<path style="fill:url(#SVGID_24_);" d="M384,348h32v16h-32V348z"/>
	
		<linearGradient id="SVGID_25_" gradientUnits="userSpaceOnUse" x1="-56.875" y1="586.625" x2="2.795" y2="586.625" gradientTransform="matrix(8 0 0 -8 455 5049)">
		<stop  offset="0" style="stop-color:#4761AC"/>
		<stop  offset="1" style="stop-color:#54C2EF"/>
	</linearGradient>
	<path style="fill:url(#SVGID_25_);" d="M432,348h16v16h-16V348z"/>
</g>
<g>
</g>
<g>
</g>
<g>
</g>
<g>
</g>
<g>
</g>
<g>
</g>
<g>
</g>
<g>
</g>
<g>
</g>
<g>
</g>
<g>
</g>
<g>
</g>
<g>
</g>
<g>
</g>
<g>
</g>
</svg>
