<svg xmlns="http://www.w3.org/2000/svg" viewBox="0 0 220 220" width="220" height="220">
	<defs>
		<linearGradient id="grd1" gradientUnits="userSpaceOnUse"  x1="114.106" y1="100.756" x2="183.98" y2="30.882">
			<stop offset="0" stop-color="#ffbc27"  />
			<stop offset="1" stop-color="#fde252"  />
		</linearGradient>
		<linearGradient id="grd2" gradientUnits="userSpaceOnUse"  x1="120.746" y1="143.752" x2="182.545" y2="81.953">
			<stop offset="0" stop-color="#d6f2fd"  />
			<stop offset="1" stop-color="#e5f5fd"  />
		</linearGradient>
		<linearGradient id="grd3" gradientUnits="userSpaceOnUse"  x1="83.33" y1="188.72" x2="106.913" y2="165.137">
			<stop offset="0" stop-color="#00ccff"  />
			<stop offset="1" stop-color="#5ddefe"  />
		</linearGradient>
	</defs>
	<style>
		tspan { white-space:pre }
		.shp0 { fill: url(#grd1) } 
		.shp1 { fill: #ffffff } 
		.shp2 { fill: url(#grd2) } 
		.shp3 { fill: url(#grd3) } 
	</style>
	<g >
		<path class="shp0" d="M183.98 65.82C183.98 85.11 168.34 100.76 149.04 100.76C129.75 100.76 114.11 85.11 114.11 65.82C114.11 46.52 129.75 30.88 149.04 30.88C168.34 30.88 183.98 46.52 183.98 65.82Z" />
		<path class="shp1" d="M144.34 143.66C160.26 143.66 173.17 130.97 173.17 115.32C173.17 99.67 160.26 86.98 144.34 86.98C144.24 86.98 144.14 87 144.04 87C141.48 64.4 121.99 46.83 98.32 46.83C79.62 46.83 63.54 57.79 56.34 73.53C56.11 73.53 55.89 73.51 55.66 73.51C35.95 73.51 19.98 89.21 19.98 108.58C19.98 127.95 35.95 143.66 55.66 143.66" />
		<path class="shp2" d="M181.8 143.75C191.85 143.75 200 135.65 200 125.67C200 115.68 191.85 107.58 181.8 107.58C181.74 107.58 181.68 107.59 181.61 107.59C180 93.17 167.69 81.95 152.75 81.95C140.94 81.95 130.79 88.95 126.25 99C126.1 98.99 125.96 98.98 125.82 98.98C113.38 98.98 103.29 109.01 103.29 121.37C103.29 133.73 113.38 143.75 125.82 143.75" />
		<path class="shp3" d="M52.95 188.72C52.03 188.72 51.1 188.49 50.24 188.02C47.65 186.57 46.76 183.37 48.26 180.86L56.08 167.76C57.58 165.25 60.89 164.39 63.49 165.84C66.08 167.29 66.97 170.49 65.47 173L57.65 186.1C56.64 187.78 54.82 188.72 52.95 188.72ZM89.85 188.72C88.93 188.72 88 188.49 87.14 188.02C84.55 186.57 83.66 183.37 85.16 180.86L92.98 167.76C94.48 165.25 97.79 164.39 100.39 165.84C102.99 167.29 103.87 170.49 102.38 173L94.55 186.1C93.54 187.78 91.72 188.72 89.85 188.72ZM129.46 188.72C128.54 188.72 127.61 188.49 126.75 188.02C124.16 186.57 123.27 183.37 124.77 180.86L132.59 167.76C134.09 165.25 137.4 164.39 140 165.84C142.6 167.29 143.48 170.49 141.99 173L134.16 186.1C133.15 187.78 131.33 188.72 129.46 188.72Z" />
	</g>
</svg>