<svg xmlns="http://www.w3.org/2000/svg" viewBox="0 0 220 220" width="220" height="220">
	<defs>
		<linearGradient id="grd1" gradientUnits="userSpaceOnUse"  x1="43" y1="187.261" x2="177" y2="53.261">
			<stop offset="0" stop-color="#00ccff"  />
			<stop offset="1" stop-color="#5ddefe"  />
		</linearGradient>
		<linearGradient id="grd2" gradientUnits="userSpaceOnUse"  x1="119.368" y1="53.41" x2="140.986" y2="31.792">
			<stop offset="0" stop-color="#ffbc27"  />
			<stop offset="1" stop-color="#fde252"  />
		</linearGradient>
		<linearGradient id="grd3" gradientUnits="userSpaceOnUse"  x1="137.604" y1="101.547" x2="170.363" y2="68.788">
			<stop offset="0" stop-color="#ffbc27"  />
			<stop offset="1" stop-color="#fde252"  />
		</linearGradient>
	</defs>
	<style>
		tspan { white-space:pre }
		.shp0 { fill: url(#grd1) } 
		.shp1 { fill: url(#grd2) } 
		.shp2 { fill: url(#grd3) } 
	</style>
	<g >
		<path class="shp0" d="M111.28 187.26C73.63 187.26 43 156.63 43 118.98C43 88.72 63.32 61.75 92.43 53.4C93.69 53.04 95.02 53.39 95.94 54.31C96.86 55.23 97.21 56.57 96.85 57.82C95.25 63.4 94.44 69.08 94.44 74.7C94.44 108.4 121.86 135.82 155.56 135.82C161.17 135.82 166.85 135.01 172.44 133.41C173.69 133.06 175.03 133.4 175.95 134.32C176.87 135.24 177.22 136.58 176.86 137.83C168.51 166.94 141.54 187.26 111.28 187.26Z" />
		<path class="shp1" d="M131.68 51.13C130.85 54.17 129.5 54.17 128.67 51.13C127.85 48.09 124.68 44.93 121.65 44.1C118.61 43.28 118.61 41.92 121.65 41.1C124.68 40.27 127.85 37.11 128.67 34.07C129.5 31.03 130.85 31.03 131.68 34.07C132.51 37.11 135.67 40.27 138.71 41.1C141.75 41.92 141.75 43.28 138.71 44.1C135.67 44.93 132.51 48.09 131.68 51.13Z" />
		<path class="shp2" d="M156.26 98.1C155.01 102.7 152.96 102.7 151.71 98.1C150.45 93.49 145.66 88.7 141.06 87.45C136.45 86.19 136.45 84.14 141.06 82.89C145.66 81.64 150.45 76.84 151.71 72.24C152.96 67.63 155.01 67.63 156.26 72.24C157.51 76.84 162.31 81.64 166.91 82.89C171.52 84.14 171.52 86.19 166.91 87.45C162.31 88.7 157.51 93.49 156.26 98.1Z" />
	</g>
</svg>