<svg xmlns="http://www.w3.org/2000/svg" viewBox="0 0 220 220" width="220" height="220">
	<defs>
		<linearGradient id="grd1" gradientUnits="userSpaceOnUse"  x1="116.815" y1="123.874" x2="186.689" y2="54">
			<stop offset="0" stop-color="#ffbc27"  />
			<stop offset="1" stop-color="#fde252"  />
		</linearGradient>
		<linearGradient id="grd2" gradientUnits="userSpaceOnUse"  x1="120.767" y1="166.871" x2="182.566" y2="105.072">
			<stop offset="0" stop-color="#d6f2fd"  />
			<stop offset="1" stop-color="#e5f5fd"  />
		</linearGradient>
	</defs>
	<style>
		tspan { white-space:pre }
		.shp0 { fill: url(#grd1) } 
		.shp1 { fill: #ffffff } 
		.shp2 { fill: url(#grd2) } 
	</style>
	<g >
		<path class="shp0" d="M186.69 88.94C186.69 108.23 171.05 123.87 151.75 123.87C132.46 123.87 116.82 108.23 116.82 88.94C116.82 69.64 132.46 54 151.75 54C171.05 54 186.69 69.64 186.69 88.94Z" />
		<path class="shp1" d="M144.36 166.78C160.28 166.78 173.19 154.09 173.19 138.44C173.19 122.79 160.28 110.1 144.36 110.1C144.26 110.1 144.16 110.11 144.06 110.12C141.5 87.52 122.01 69.95 98.34 69.95C79.64 69.95 63.56 80.91 56.36 96.65C56.13 96.64 55.91 96.63 55.68 96.63C35.97 96.63 20 112.33 20 131.7C20 151.07 35.97 166.78 55.68 166.78" />
		<path class="shp2" d="M181.82 166.87C191.87 166.87 200.02 158.77 200.02 148.79C200.02 138.8 191.87 130.7 181.82 130.7C181.76 130.7 181.7 130.71 181.64 130.71C180.02 116.29 167.71 105.07 152.77 105.07C140.97 105.07 130.81 112.07 126.27 122.11C126.12 122.11 125.98 122.1 125.84 122.1C113.4 122.1 103.31 132.12 103.31 144.49C103.31 156.85 113.4 166.87 125.84 166.87" />
	</g>
</svg>